<?xml version="1.0" encoding="iso-8859-1"?>
<!-- Generator: Adobe Illustrator 16.0.0, SVG Export Plug-In . SVG Version: 6.00 Build 0)  -->
<!DOCTYPE svg PUBLIC "-//W3C//DTD SVG 1.1//EN" "http://www.w3.org/Graphics/SVG/1.1/DTD/svg11.dtd">
<svg version="1.1" id="Capa_1" xmlns="http://www.w3.org/2000/svg" xmlns:xlink="http://www.w3.org/1999/xlink" x="0px" y="0px"
	 width="612px" height="612px" viewBox="0 0 612 612" style="enable-background:new 0 0 612 612;" xml:space="preserve">
<g>
	<g id="web_-_log_out_logout_exit">
		<g>
			<path d="M286.857,516.765L57.372,555.089c-10.578,0-19.124-8.585-19.124-19.162V76.035c0-10.539,8.546-19.162,19.124-19.162
				l229.485,38.324c10.578,0,19.124,8.585,19.124,19.162V56.873L38.248,18.549C17.131,18.549,0,35.718,0,56.912v498.215
				c0,21.193,17.131,38.324,38.248,38.324l267.733-38.362v-57.448C305.981,508.218,297.435,516.765,286.857,516.765z
				 M611.962,305.828c0.038-3.412-1.073-6.708-2.874-9.735c-0.115-0.23-0.269-0.383-0.384-0.613
				c-0.689-1.073-1.188-2.261-2.146-3.219c-1.839-1.839-4.023-3.219-6.285-4.139L414.4,138.925c-7.282-7.282-19.124-7.282-26.405,0
				c-7.282,7.32-7.282,19.162,0,26.482l151.188,121.412H95.619c-10.578,0-19.124,8.584-19.124,19.162
				c0,10.616,8.546,19.162,19.124,19.162h443.564L387.956,446.516c-7.281,7.32-7.281,19.162,0,26.482
				c7.282,7.32,19.124,7.32,26.406,0l185.91-149.196c2.3-0.92,4.407-2.262,6.285-4.139c3.718-3.718,5.48-8.623,5.404-13.491
				c0-0.076,0.038-0.114,0.038-0.191C612,305.942,611.962,305.904,611.962,305.828z"/>
		</g>
	</g>
</g>
<g>
</g>
<g>
</g>
<g>
</g>
<g>
</g>
<g>
</g>
<g>
</g>
<g>
</g>
<g>
</g>
<g>
</g>
<g>
</g>
<g>
</g>
<g>
</g>
<g>
</g>
<g>
</g>
<g>
</g>
</svg>
